PathFileType	4	(X/Y/Z)	C:\Users\86182\Documents\cortex\Trimmed_M4_L10.trc
DataRate	CameraRate	NumFrames	NumMarkers	Units	OrigDataRate	OrigDataStartFrame	OrigNumFrames
100.00	100.00	       140	2	mm	100.00	721	       901
Frame#	Time	gripper			box			
		X1	Y1	Z1	X2	Y2	Z2	

721	7.200	274.51657	150.39951	292.48724	277.06110	147.38026	157.22588	
722	7.210	274.51642	150.40054	292.48767	277.05704	147.38200	157.22673	
723	7.220	274.51611	150.40097	292.48788	277.05450	147.38316	157.22719	
724	7.230	274.51602	150.40097	292.48788	277.05359	147.38367	157.22726	
725	7.240	274.51648	150.40070	292.48773	277.05466	147.38332	157.22693	
726	7.250	274.51758	150.40028	292.48743	277.05795	147.38202	157.22610	
727	7.260	274.51932	150.39970	292.48697	277.06351	147.37979	157.22476	
728	7.270	274.52164	150.39903	292.48642	277.07089	147.37686	157.22296	
729	7.280	274.52457	150.39832	292.48575	277.07919	147.37358	157.22089	
730	7.290	274.52798	150.39752	292.48502	277.08737	147.37038	157.21884	
731	7.300	274.53152	150.39659	292.48419	277.09460	147.36752	157.21704	
732	7.310	274.53458	150.39531	292.48331	277.10056	147.36516	157.21558	
733	7.320	274.53668	150.39374	292.48242	277.10501	147.36342	157.21445	
734	7.330	274.53760	150.39217	292.48169	277.10754	147.36249	157.21375	
735	7.340	274.53726	150.39108	292.48135	277.10751	147.36266	157.21358	
736	7.350	274.53564	150.39082	292.48145	277.10458	147.36401	157.21407	
737	7.360	274.53290	150.39137	292.48203	277.09903	147.36644	157.21518	
738	7.370	274.52927	150.39243	292.48291	277.09183	147.36949	157.21674	
739	7.380	274.52533	150.39369	292.48389	277.08417	147.37267	157.21846	
740	7.390	274.52176	150.39507	292.48489	277.07709	147.37553	157.22014	
741	7.400	274.51920	150.39653	292.48578	277.07111	147.37785	157.22168	
742	7.410	274.51785	150.39787	292.48645	277.06677	147.37936	157.22298	
743	7.420	274.51749	150.39873	292.48682	277.06464	147.37988	157.22388	
744	7.430	274.51801	150.39877	292.48679	277.06509	147.37929	157.22420	
745	7.440	274.51971	150.39796	292.48627	277.06839	147.37761	157.22382	
746	7.450	274.52328	150.39645	292.48520	277.07431	147.37502	157.22263	
747	7.460	274.52933	150.39447	292.48364	277.08234	147.37178	157.22072	
748	7.470	274.53815	150.39214	292.48163	277.09158	147.36826	157.21828	
749	7.480	274.54962	150.38969	292.47919	277.10120	147.36475	157.21558	
750	7.490	274.56281	150.38754	292.47662	277.11075	147.36133	157.21283	
751	7.500	274.57584	150.38603	292.47430	277.12033	147.35791	157.21004	
752	7.510	274.58649	150.38536	292.47266	277.13000	147.35443	157.20728	
753	7.520	274.59268	150.38545	292.47186	277.13928	147.35103	157.20467	
754	7.530	274.59332	150.38603	292.47198	277.14752	147.34799	157.20239	
755	7.540	274.58823	150.38678	292.47296	277.15414	147.34552	157.20061	
756	7.550	274.57831	150.38739	292.47449	277.15848	147.34386	157.19945	
757	7.560	274.56570	150.38768	292.47629	277.16000	147.34326	157.19908	
758	7.570	274.55304	150.38766	292.47797	277.15854	147.34378	157.19951	
759	7.580	274.54272	150.38741	292.47922	277.15479	147.34517	157.20055	
760	7.590	274.53607	150.38701	292.47998	277.15039	147.34682	157.20174	
761	7.600	274.53323	150.38655	292.48016	277.14719	147.34805	157.20255	
762	7.610	274.53357	150.38620	292.47998	277.14639	147.34843	157.20267	
763	7.620	274.53580	150.38618	292.47968	277.14789	147.34798	157.20213	
764	7.630	274.53839	150.38673	292.47955	277.15073	147.34705	157.20123	
765	7.640	274.54056	150.38794	292.47974	277.15381	147.34601	157.20027	
766	7.650	274.54214	150.38965	292.48016	277.15646	147.34509	157.19946	
767	7.660	274.54330	150.39160	292.48074	277.15826	147.34444	157.19894	
768	7.670	274.54431	150.39357	292.48132	277.15903	147.34413	157.19878	
769	7.680	274.54547	150.39536	292.48187	277.15854	147.34421	157.19901	
770	7.690	274.54657	150.39684	292.48227	277.15680	147.34471	157.19966	
771	7.700	274.54709	150.39787	292.48257	277.15372	147.34566	157.20073	
772	7.710	274.54636	150.39830	292.48282	277.14966	147.34695	157.20209	
773	7.720	274.54391	150.39813	292.48309	277.14526	147.34839	157.20352	
774	7.730	274.53979	150.39754	292.48340	277.14120	147.34975	157.20480	
775	7.740	274.53439	150.39677	292.48383	277.13754	147.35103	157.20589	
776	7.750	274.52829	150.39604	292.48438	277.13364	147.35248	157.20697	
777	7.760	274.52228	150.39551	292.48499	277.12872	147.35432	157.20825	
778	7.770	274.51733	150.39520	292.48550	277.12241	147.35677	157.20990	
779	7.780	274.51428	150.39511	292.48590	277.11459	147.35979	157.21190	
780	7.790	274.51361	150.39526	292.48602	277.10580	147.36319	157.21414	
781	7.800	274.51532	150.39572	292.48599	277.09726	147.36650	157.21632	
782	7.810	274.51920	150.39647	292.48575	277.09073	147.36905	157.21799	
783	7.820	274.52460	150.39743	292.48541	277.08789	147.37022	157.21864	
784	7.830	274.53030	150.39842	292.48502	277.08960	147.36971	157.21803	
785	7.840	274.53500	150.39925	292.48471	277.09552	147.36763	157.21629	
786	7.850	274.53809	150.39972	292.48447	277.10410	147.36450	157.21385	
787	7.860	274.53952	150.39972	292.48428	277.11359	147.36096	157.21127	
788	7.870	274.53934	150.39919	292.48410	277.12238	147.35756	157.20900	
789	7.880	274.53763	150.39813	292.48395	277.12955	147.35471	157.20726	
790	7.890	274.53476	150.39676	292.48380	277.13452	147.35263	157.20615	
791	7.900	274.53143	150.39543	292.48376	277.13712	147.35147	157.20566	
792	7.910	274.52826	150.39447	292.48383	277.13748	147.35120	157.20572	
793	7.920	274.52591	150.39412	292.48401	277.13593	147.35167	157.20627	
794	7.930	274.52460	150.39461	292.48434	277.13281	147.35278	157.20715	
795	7.940	274.52444	150.39612	292.48495	277.12857	147.35439	157.20831	
796	7.950	274.52557	150.39873	292.48578	277.12341	147.35638	157.20964	
797	7.960	274.52820	150.40222	292.48676	277.11743	147.35870	157.21117	
798	7.970	274.53201	150.40605	292.48767	277.11084	147.36128	157.21283	
799	7.980	274.53589	150.40952	292.48846	277.10413	147.36394	157.21449	
800	7.990	274.53845	150.41188	292.48901	277.09805	147.36632	157.21600	
801	8.000	274.53867	150.41269	292.48929	277.09360	147.36809	157.21710	
802	8.010	274.53625	150.41185	292.48929	277.09146	147.36893	157.21764	
803	8.020	274.53159	150.40959	292.48907	277.09186	147.36876	157.21753	
804	8.030	274.52573	150.40646	292.48865	277.09436	147.36777	157.21693	
805	8.040	274.52029	150.40320	292.48816	277.09818	147.36623	157.21602	
806	8.050	274.51675	150.40045	292.48758	277.10275	147.36440	157.21494	
807	8.060	274.51581	150.39851	292.48700	277.10764	147.36244	157.21373	
808	8.070	274.51746	150.39740	292.48633	277.11246	147.36055	157.21252	
809	8.080	274.52115	150.39694	292.48569	277.11673	147.35889	157.21144	
810	8.090	274.52606	150.39703	292.48505	277.12000	147.35760	157.21063	
811	8.100	274.53146	150.39757	292.48456	277.12192	147.35681	157.21019	
812	8.110	274.53677	150.39832	292.48413	277.12274	147.35641	157.21005	
813	8.120	274.54144	150.39905	292.48376	277.12292	147.35628	157.21007	
814	8.130	274.54477	150.39966	292.48358	277.12262	147.35634	157.21022	
815	8.140	274.54584	150.40012	292.48358	277.12167	147.35664	157.21053	
816	8.150	274.54428	150.40034	292.48389	277.12018	147.35719	157.21094	
817	8.160	274.54044	150.40031	292.48438	277.11823	147.35800	157.21138	
818	8.170	274.53503	150.40001	292.48499	277.11554	147.35919	157.21190	
819	8.180	274.52890	150.39940	292.48557	277.11206	147.36073	157.21255	
820	8.190	274.52274	150.39850	292.48605	277.10858	147.36234	157.21318	
821	8.200	274.51740	150.39746	292.48636	277.10626	147.36346	157.21352	
822	8.210	274.51373	150.39650	292.48651	277.10599	147.36375	157.21338	
823	8.220	274.51227	150.39589	292.48645	277.10764	147.36324	157.21281	
824	8.230	274.51321	150.39572	292.48627	277.11035	147.36223	157.21208	
825	8.240	274.51651	150.39598	292.48593	277.11316	147.36111	157.21138	
826	8.250	274.52173	150.39653	292.48544	277.11578	147.36003	157.21078	
827	8.260	274.52808	150.39720	292.48483	277.11874	147.35884	157.21008	
828	8.270	274.53442	150.39787	292.48425	277.12253	147.35735	157.20915	
829	8.280	274.53952	150.39841	292.48380	277.12683	147.35565	157.20808	
830	8.290	274.54242	150.39864	292.48349	277.13071	147.35408	157.20715	
831	8.300	274.54276	150.39856	292.48343	277.13321	147.35303	157.20662	
832	8.310	274.54092	150.39830	292.48358	277.13382	147.35266	157.20662	
833	8.320	274.53766	150.39786	292.48383	277.13254	147.35300	157.20714	
834	8.330	274.53357	150.39713	292.48410	277.12955	147.35396	157.20813	
835	8.340	274.52911	150.39607	292.48431	277.12527	147.35539	157.20946	
836	8.350	274.52451	150.39491	292.48447	277.12030	147.35712	157.21095	
837	8.360	274.51990	150.39398	292.48474	277.11520	147.35890	157.21246	
838	8.370	274.51569	150.39351	292.48511	277.11075	147.36047	157.21378	
839	8.380	274.51245	150.39352	292.48553	277.10776	147.36157	157.21461	
840	8.390	274.51089	150.39401	292.48593	277.10681	147.36198	157.21481	
841	8.400	274.51157	150.39488	292.48618	277.10794	147.36166	157.21437	
842	8.410	274.51465	150.39604	292.48621	277.11099	147.36064	157.21341	
843	8.420	274.51978	150.39729	292.48599	277.11533	147.35912	157.21214	
844	8.430	274.52588	150.39838	292.48560	277.11993	147.35745	157.21085	
845	8.440	274.53152	150.39888	292.48505	277.12384	147.35599	157.20978	
846	8.450	274.53531	150.39853	292.48438	277.12656	147.35495	157.20906	
847	8.460	274.53668	150.39728	292.48373	277.12811	147.35434	157.20868	
848	8.470	274.53592	150.39545	292.48315	277.12909	147.35397	157.20842	
849	8.480	274.53375	150.39343	292.48267	277.13016	147.35361	157.20808	
850	8.490	274.53101	150.39146	292.48230	277.13162	147.35312	157.20763	
851	8.500	274.52826	150.38980	292.48203	277.13324	147.35258	157.20711	
852	8.510	274.52570	150.38861	292.48193	277.13470	147.35210	157.20662	
853	8.520	274.52307	150.38814	292.48209	277.13586	147.35173	157.20624	
854	8.530	274.52023	150.38840	292.48257	277.13644	147.35156	157.20602	
855	8.540	274.51749	150.38933	292.48331	277.13593	147.35178	157.20613	
856	8.550	274.51556	150.39070	292.48407	277.13379	147.35252	157.20677	
857	8.560	274.51517	150.39226	292.48471	277.13010	147.35378	157.20793	
858	8.570	274.51648	150.39388	292.48514	277.12540	147.35535	157.20941	
859	8.580	274.51910	150.39543	292.48538	277.12045	147.35698	157.21098	
860	8.590	274.52213	150.39674	292.48547	277.11615	147.35841	157.21237	
